<?xml version="1.0" encoding="UTF-8" standalone="no"?><!DOCTYPE svg PUBLIC "-//W3C//DTD SVG 1.1//EN" "http://www.w3.org/Graphics/SVG/1.1/DTD/svg11.dtd"><svg width="100%" height="100%" viewBox="0 0 62 62" version="1.1" xmlns="http://www.w3.org/2000/svg" xmlns:xlink="http://www.w3.org/1999/xlink" xml:space="preserve" xmlns:serif="http://www.serif.com/" style="fill-rule:evenodd;clip-rule:evenodd;stroke-linejoin:round;stroke-miterlimit:2;"><rect id="Page-2" serif:id="Page 2" x="0" y="0" width="61.44" height="61.44" style="fill:none;"/><clipPath id="_clip1"><rect x="0" y="0" width="61.44" height="61.44"/></clipPath><g clip-path="url(#_clip1)"><g><path d="M26.448,1.145c2.644,-1.526 5.901,-1.526 8.544,-0c5.217,3.012 13.988,8.076 19.205,11.088c2.644,1.526 4.272,4.347 4.272,7.4l-0,22.175c-0,3.053 -1.629,5.873 -4.272,7.4c-5.217,3.012 -13.988,8.076 -19.205,11.088c-2.644,1.526 -5.901,1.526 -8.544,0c-5.217,-3.012 -13.988,-8.076 -19.205,-11.088c-2.644,-1.526 -4.272,-4.347 -4.272,-7.4l0,-22.175c0,-3.053 1.629,-5.873 4.272,-7.4c5.217,-3.012 13.988,-8.076 19.205,-11.088Z" style="fill:url(#_Linear2);"/><g><path d="M12.943,31.046c-0,-0.036 -0,-0.071 -0,-0.107c0,-6.652 3.662,-12.455 9.077,-15.503c0.074,1.227 0.404,2.386 0.936,3.425c-3.765,2.426 -6.325,6.565 -6.575,11.311c-1.228,0.053 -2.391,0.362 -3.438,0.874Zm26.476,-15.609c5.416,3.048 9.077,8.851 9.077,15.502c0,0.035 -0,0.069 -0,0.104c-1.046,-0.512 -2.21,-0.82 -3.438,-0.873c-0.251,-4.745 -2.81,-8.882 -6.575,-11.308c0.532,-1.039 0.861,-2.198 0.936,-3.425Zm0.48,30.725c-2.68,1.621 -5.822,2.553 -9.179,2.553c-3.357,0 -6.497,-0.932 -9.177,-2.552c0.996,-0.656 1.851,-1.511 2.506,-2.508c1.994,1.049 4.263,1.642 6.67,1.642c2.408,0 4.678,-0.594 6.673,-1.644c0.656,0.997 1.51,1.852 2.507,2.508Z" style="fill:#fff;"/><path d="M30.72,8.751c3.397,0 6.152,2.755 6.152,6.152c0,3.397 -2.755,6.152 -6.152,6.152c-3.397,0 -6.152,-2.755 -6.152,-6.152c0,-3.397 2.755,-6.152 6.152,-6.152Z" style="fill:#fff;"/><path d="M16.761,32.728c3.397,0 6.152,2.755 6.152,6.152c0,3.397 -2.755,6.152 -6.152,6.152c-3.397,0 -6.152,-2.755 -6.152,-6.152c0,-3.397 2.755,-6.152 6.152,-6.152Z" style="fill:#fff;"/><path d="M44.679,32.725c3.397,0 6.152,2.755 6.152,6.152c0,3.397 -2.755,6.152 -6.152,6.152c-3.398,0 -6.152,-2.755 -6.152,-6.152c0,-3.397 2.754,-6.152 6.152,-6.152Z" style="fill:#fff;"/></g></g></g><defs><linearGradient id="_Linear2" x1="0" y1="0" x2="1" y2="0" gradientUnits="userSpaceOnUse" gradientTransform="matrix(-0.000684,61.43993,-61.43993,-0.000684,30.72,0)"><stop offset="0" style="stop-color:#ff3434;stop-opacity:1"/><stop offset="1" style="stop-color:#ff5a37;stop-opacity:1"/></linearGradient></defs></svg>